<?xml version="1.0" encoding="utf-8"?>
<!-- Generator: Adobe Illustrator 16.0.0, SVG Export Plug-In . SVG Version: 6.00 Build 0)  -->
<!DOCTYPE svg PUBLIC "-//W3C//DTD SVG 1.1//EN" "http://www.w3.org/Graphics/SVG/1.1/DTD/svg11.dtd">
<svg version="1.1" id="Layer_1" xmlns="http://www.w3.org/2000/svg" xmlns:xlink="http://www.w3.org/1999/xlink" x="0px" y="0px"
	 width="100px" height="100px" viewBox="0 0 100 100" enable-background="new 0 0 100 100" xml:space="preserve">
<g>
	<path d="M50,0C22.43,0,0,22.43,0,50s22.43,50,50,50s50-22.43,50-50S77.57,0,50,0z M50,90.644C27.589,90.644,9.356,72.411,9.356,50
		C9.356,27.589,27.589,9.356,50,9.356c22.411,0,40.644,18.233,40.644,40.644C90.644,72.411,72.411,90.644,50,90.644z"/>
	<path d="M50,15.578C30.99,15.578,15.579,30.99,15.579,50c0,19.011,15.411,34.422,34.421,34.422
		c19.012,0,34.422-15.411,34.422-34.422C84.422,30.99,69.011,15.578,50,15.578z M65.095,71.252l-15.019-8.283l-14.92,8.279
		l2.696-16.812L25.825,42.562l16.815-2.345l7.435-15.268l7.534,15.318l16.565,2.288L62.149,54.436L65.095,71.252z"/>
</g>
</svg>
